<svg xmlns="http://www.w3.org/2000/svg" viewBox="0 0 511.999 511.999"><path d="M508.745 246.04c-4.574-6.257-113.557-153.206-252.748-153.206S7.818 239.784 3.25 246.035c-4.332 5.936-4.332 13.987 0 19.923 4.57 6.257 113.557 153.206 252.748 153.206s248.174-146.95 252.748-153.2c4.338-5.935 4.338-13.992 0-19.922zM255.997 385.406c-102.53 0-191.33-97.533-217.617-129.418 26.253-31.913 114.868-129.395 217.617-129.395 102.524 0 191.32 97.516 217.617 129.418-26.253 31.912-114.868 129.395-217.617 129.395zm0-230.68c-55.842 0-101.275 45.433-101.275 101.275s45.433 101.275 101.275 101.275S357.272 311.842 357.272 256 311.84 154.725 255.997 154.725zm0 168.8c-37.23 0-67.516-30.287-67.516-67.516s30.287-67.516 67.516-67.516S323.513 218.77 323.513 256s-30.286 67.516-67.516 67.516z"/></svg>