<svg xmlns="http://www.w3.org/2000/svg" width="701" height="631" stroke="#000" stroke-linecap="round" stroke-linejoin="round" fill="#fff" fill-rule="evenodd"><path d="M455 323V211c0-71-43-135-108-161-10-28-37-49-67-49-31 0-57 21-66 49-64 25-110 87-110 161v112c0 8-2 18-9 23l-25 25v85h150c12 21 35 35 60 35 26 0 49-14 60-35h150v-85l-25-25c-7-5-10-15-10-23zM24 135C8 169 0 207 0 246s8 77 24 111l32-14c-14-30-21-64-21-97s7-67 21-97l-32-14zm512 0l-32 14c14 30 21 64 21 97s-7 67-21 97l32 14c17-34 24-72 24-111s-7-77-24-111z" stroke="none" fill-rule="nonzero"/></svg>