<svg xmlns="http://www.w3.org/2000/svg" width="434" height="466" stroke="none" stroke-linecap="round" stroke-linejoin="round" fill="#fff" fill-rule="nonzero"><path d="M1 281h432v32H1z" fill="#2b93cb"/><path d="M41 1h352v200H41z" fill="#216ead"/><path d="M17 201h400v32H17z" fill="#2b93cb"/><path d="M201 369v-24l-24-80H97l-24 80v24c0 9 7 16 16 16h96c9 0 16-7 16-16z" fill="#eeba2b"/><path d="M121 289h32v16h-32z" fill="#914c0e"/><path d="M89 385l8 80h16l8-80zm64 0l8 80h16l8-80zm96 0l8 80h16l8-80zm64 0l8 80h16l8-80z" fill="#c77708"/><path d="M361 369v-24l-24-80h-80l-24 80v24c0 9 7 16 16 16h96c9 0 16-7 16-16z" fill="#eeba2b"/><path d="M281 289h32v16h-32z" fill="#914c0e"/><path d="M49 313L33 465H17V313zm336 0l16 152h16V313z" fill="#216ead"/><path d="M105 161h64v40h-64z" fill="#5ab9e6"/></svg>