<svg xmlns="http://www.w3.org/2000/svg" xmlns:xlink="http://www.w3.org/1999/xlink" width="484" height="454" stroke="#000" stroke-linecap="round" stroke-linejoin="round" fill="#fff" fill-rule="evenodd"><style><![CDATA[.H{stroke:none}.I{fill-opacity:0}.J{stroke-opacity:0}.K{stroke-linejoin:miter}.L{fill:#000}.M{fill:#d16934}.N{fill:#e4e4e4}]]></style><g fill-rule="nonzero"><use xlink:href="#D" fill="#f9f9f9" class="H"/><use xlink:href="#D" class="I J K L"/><use xlink:href="#A" class="H M"/><use xlink:href="#A" class="I J K L"/><use xlink:href="#A" x="249" y="113" class="H M"/><use xlink:href="#A" x="249" y="113" class="I J K L"/><use xlink:href="#B" class="H M"/><use xlink:href="#B" class="I J K L"/><use xlink:href="#A" x="82" y="113" class="H M"/><use xlink:href="#A" x="82" y="113" class="I J K L"/><use xlink:href="#C" fill="#f96625" class="H"/><use xlink:href="#C" class="I J K L"/><use xlink:href="#A" x="165" class="H M"/><use xlink:href="#A" x="165" class="I J K L"/><use xlink:href="#A" x="82" class="H M"/><use xlink:href="#A" x="82" class="I J K L"/><use xlink:href="#A" x="249" class="H M"/><use xlink:href="#A" x="249" class="I J K L"/><use xlink:href="#B" y="-113" class="H M"/><use xlink:href="#B" y="-113" class="I J K L"/><use xlink:href="#A" y="113" class="H M"/><use xlink:href="#A" y="113" class="I J K L"/><use xlink:href="#A" x="165" y="113" class="H M"/><use xlink:href="#A" x="165" y="113" class="I J K L"/><use xlink:href="#E" class="H N"/><use xlink:href="#E" class="I J K L"/><use xlink:href="#F" class="H N"/><use xlink:href="#F" class="I J K L"/><use xlink:href="#G" class="H N"/><use xlink:href="#G" class="I J K L"/></g><defs><path id="A" d="M186 207v64c0 9-5 17-10 17h-37c-6 0-10-8-10-17v-64c0-9 4-17 10-17h37c5 0 10 8 10 17z"/><path id="B" d="M105 320v64c0 9-5 17-10 17H58c-6 0-10-8-10-17v-64c0-9 4-17 10-17h37c5 0 10 8 10 17z"/><path id="C" d="M483 60v80a8.96 8.96 0 0 1-9 9H10a8.96 8.96 0 0 1-9-9V60a8.96 8.96 0 0 1 9-9h464a8.96 8.96 0 0 1 9 9z"/><path id="D" d="M483 62v380c0 6-5 11-11 11H12c-3 0-6-2-8-4s-3-5-3-7V62c0-3 1-6 3-8s5-3 8-3h460c6 0 11 5 11 11z"/><path id="E" d="M123 9v97c0 5-4 9-8 9H68c-4 0-8-4-8-9V9c0-4 4-8 8-8h47c4 0 8 4 8 8z"/><path id="F" d="M273 9v97c0 5-4 9-8 9h-47c-4 0-8-4-8-9V9c0-4 4-8 8-8h47c4 0 8 4 8 8z"/><path id="G" d="M423 9v97c0 5-4 9-8 9h-47c-4 0-8-4-8-9V9c0-2 1-4 2-6 2-1 4-2 6-2h47c4 0 8 4 8 8z"/></defs></svg>