<svg xmlns="http://www.w3.org/2000/svg" width="409" height="417" stroke="none" stroke-linecap="round" stroke-linejoin="round" fill="#fff" fill-rule="nonzero"><path d="M314 219l-4 35H113l-3-35c-3-19 1-37 8-55 6-15 9-31 9-47l-2-25a89.96 89.96 0 0 1 42-79c28-16 62-16 89 0 28 17 44 47 42 79v25c-1 16 1 32 7 47 8 18 11 36 9 55z" fill="#8f4d2e"/><path d="M314 219l-2 21h-79v-77l14-28V78c0-35-24-65-57-74 26-7 55-1 76 17 22 17 34 43 33 71l-2 25c-1 16 3 32 9 47 7 18 9 36 8 55z" fill="#82462a"/><path d="M249 226c-3 0-5-1-7-2-2-2-3-5-3-8v-46h-56v46c0 3-1 6-3 8-1 1-4 2-7 2h-11v42h98v-42z" fill="#fec9a3"/><path d="M215 205c9 0 17-3 24-9v-26h-56v26c7 6 15 9 24 9z" fill="#feb784"/><path d="M274 92v35c0 35-28 63-63 63s-63-28-63-63V92c14-9 25-22 32-37l3-5 4 4c17 14 37 25 59 32 9 3 19 4 28 6z" fill="#fec9a3"/><path d="M275 92v35c0 31-21 56-51 63 15-15 23-35 23-56V86a126.62 126.62 0 0 0 28 6z" fill="#fec093"/><path d="M180 120c-7 0-11-4-11-10 0-7 4-11 11-11 6 0 10 4 10 11 0 6-4 10-10 10zm63 0c-6 0-11-4-11-10 0-7 5-11 11-11s10 4 10 11c0 6-4 10-10 10z" fill="#7a432a"/><path d="M211 156c-11 0-21-10-21-21h14c0 4 4 7 7 7 4 0 7-3 7-7h14c0 11-10 21-21 21z" fill="#f7a468"/><path d="M176 254h70v49h-70z" fill="#e0e0de"/><path d="M354 408c-10 2-20-4-23-14l-47-87c6 18 3 37-9 52v56H148v-56c-12-15-15-35-9-52l-48 87c-3 11-15 17-26 14-11-4-18-16-14-28l52-128c6-15 22-26 38-26h28l43 77 42-77h27c17 0 33 11 39 26l51 128c2 7 1 13-2 18s-8 10-15 10z" fill="#ec8c8c"/><path d="M45 383l5-66h42v68c0 13-10 23-23 23-7 0-13-2-18-8-4-4-6-11-6-17z" fill="#f59898"/><path d="M67 214c-5 2-8 5-10 8-2 4-1 8 1 12l6 13H39c-6 0-13-2-19-5l-7-3c-2-1-6-1-8 1-2 0-4 3-4 7v19c0 5 3 10 8 13l11 5c6 3 13 5 19 5h53v-42l-9-24c-3-6-10-10-16-9z" fill="#fec9a3"/><path d="M50 289h42v28H50z" fill="#e0e0de"/><path d="M355 407c-10 2-21-3-24-14l-46-87c5 19 2 38-10 53v56H151c58-38 107-86 148-186 10 4 18 12 21 23l51 128c3 6 2 12-2 17-3 6-8 9-14 10z" fill="#e07f7f"/><path d="M310 387l-70-14v-98l70 14z" fill="#a36548"/><path d="M338 387l70-14v-98l-70 14z" fill="#8f4d2e"/><path d="M310 289h28v98h-28z" fill="#95573a"/><path d="M324 289c0-12-9-23-21-24l-63-11v21l70 14h14c0-12 9-23 21-24l63-11v21l-70 14z" fill="#d4bd81"/><path d="M395 386l-28 5c-2 0-4 0-5-1-2-2-3-4-3-6v-26c0-4 4-8 8-9l24-4c2 0 5 0 7 2s3 4 3 7v25c0 4-3 7-6 7z" fill="#fec9a3"/></svg>