<svg xmlns="http://www.w3.org/2000/svg" width="343" height="347" stroke="none" stroke-linecap="round" stroke-linejoin="round" fill="#fff" fill-rule="nonzero"><path d="M24 8h224c9 0 16 7 16 16v299c0 9-7 16-16 16H24c-9 0-16-7-16-16V24c0-9 7-16 16-16zm0 0" fill="#79b2ff"/><path d="M187 35h49v277H34V35h49"/><path d="M99 56h72c8 0 14-6 14-14V8H85v34c0 8 6 14 14 14zm0 0" fill="#ff6977"/><path d="M99 56h72c8 0 14-6 14-14V8H85v34c0 8 6 14 14 14zm0 0" fill="#bdd9ff"/><path d="M227 176l78-79c7-7 18-7 25 0s7 18 0 25l-78 79-45 20zm0 0" fill="#ffc15a"/><path d="M252 201l-25-25-20 45zm0 0" fill="#98a1b3"/><path d="M322 131l8-9c7-7 7-18 0-25-6-7-18-7-24 0l-9 9zm0 0" fill="#ff6977"/><path d="M66 88h43v43H66zm0 74h43v43H66zm0 0" fill="#cbe558"/><path d="M66 236h43v43H66zm0 0" fill="#ff6977"/><path d="M136 305c-4 0-7 3-7 7 0 3 3 6 7 6 3 0 6-3 6-6 0-4-3-7-6-7zM335 93c-10-10-25-10-34 0l-31 30V24c0-13-10-23-23-23H24C11 1 1 11 1 24v299c0 12 10 22 23 22h223c13 0 23-10 23-22V193l65-66c9-9 9-25 0-34zm-78-69v113l-14 13V35c0-4-3-7-6-7h-45V14h55c6 0 10 5 10 10zm-37 184l9-20 12 11zM179 14v28c0 4-3 7-8 7h-71c-5 0-8-3-8-7V14zm68 318H24c-6 0-10-4-10-9V24c0-5 4-10 10-10h55v14H34c-3 0-6 3-6 7v277c0 3 3 6 6 6h75c4 0 7-3 7-6 0-4-3-7-7-7H41V41h38v1c0 11 9 21 21 21h71c12 0 21-10 21-21v-1h38v123l-7 8c-1 0-2 1-2 2l-20 45c-1 2 0 5 2 7 1 2 3 2 4 2h3l20-9v86h-68c-4 0-6 3-6 7 0 3 2 6 6 6h75c3 0 6-3 6-6v-99l12-5 2-2v117c0 5-4 9-10 9zm54-189l-49 49-15-16 60-60 15 15zm24-25l-3 4-16-16 4-4c4-4 11-4 15 0 5 5 5 12 0 16zM109 82H67c-4 0-7 3-7 7v43c0 3 3 7 7 7h42c4 0 7-4 7-7V89c0-4-3-7-7-7zm-6 43H73V95h30zm6 31H67c-4 0-7 3-7 7v43c0 3 3 7 7 7h42c4 0 7-4 7-7v-43c0-4-3-7-7-7zm-6 43H73v-30h30zm6 31H67c-4 0-7 3-7 7v43c0 3 3 7 7 7h42c4 0 7-4 7-7v-43c0-4-3-7-7-7zm-6 43H73v-30h30zm54-143c1 1 3 2 4 2 2 0 4-1 5-2l30-31c3-2 3-6 0-9-2-3-7-3-9 0l-26 26-10-11c-2-2-6-2-9 0-3 3-3 7 0 10zm0 74c2 2 7 2 9 0l30-31c3-2 3-6 0-9-2-3-7-3-9 0l-26 26-10-11c-2-2-6-2-9 0-3 3-3 7 0 10zm12 63l10 11c2 1 3 2 5 2s4-1 5-2c2-3 2-7 0-10l-10-10 10-11c2-2 2-6 0-9-3-3-7-3-10 0l-10 10-10-10c-3-3-7-3-10 0-2 3-2 7 0 9l11 11-11 10c-2 3-2 7 0 10 2 1 3 2 5 2s4-1 5-2zm0 0" fill="#204283"/></svg>