<svg xmlns="http://www.w3.org/2000/svg" width="255" height="254" stroke="#000" stroke-linecap="round" stroke-linejoin="round" fill="#fff" fill-rule="evenodd"><path d="M127 231h95c6 0 10-4 10-10V32c0-6-4-11-10-11h-95c-6 0-10-5-10-10 0-6 4-11 10-11h95c17 0 31 14 31 32v189c0 17-14 32-31 32h-95c-6 0-10-5-10-11s4-11 10-11zM3 119l64-63c4-4 11-4 15 0 2 2 3 4 3 7s-1 6-3 8l-46 45h123c5 0 10 4 10 10s-5 11-10 11H36l46 45c4 4 4 11 0 15-2 2-5 3-8 3-2 0-5-1-7-3L3 134c-2-2-3-5-3-8s1-5 3-7z" stroke="none" fill-rule="nonzero"/></svg>