<svg xmlns="http://www.w3.org/2000/svg" xmlns:xlink="http://www.w3.org/1999/xlink" width="506" height="506" stroke="#000" stroke-linecap="round" stroke-linejoin="round" fill="#fff" fill-rule="evenodd"><g fill-rule="nonzero"><g stroke="none"><path d="M222 1c11 0 20 9 20 20v201c0 11-9 20-20 20H21c-11 0-20-9-20-20V21C1 10 10 1 21 1h201z" fill="#0ed0ed"/><path d="M484 4c11 0 20 9 20 20v201c0 11-9 20-20 20H283c-11 0-20-9-20-20V24c0-11 9-20 20-20h201z" fill="#0eed0e"/><path d="M224 264c11 0 20 9 20 20v201c0 11-9 20-20 20H23c-11 0-20-9-20-20V284c0-11 9-20 20-20h201z" fill="#7c16bc"/><path d="M484 264c11 0 20 9 20 20v201c0 11-9 20-20 20H283c-11 0-20-9-20-20V284c0-11 9-20 20-20h201z" fill="#ed5a0e"/><g fill="#fefefe"><path d="M128 59c7 0 12 5 12 12v106c0 7-5 12-12 12-2 0 2 0 0 0-7 0-12-5-12-12V71c0-3 1-6 3-8 3-3 6-4 9-4 2 0-2 0 0 0z"/><use xlink:href="#A"/></g></g><use xlink:href="#B" fill="#000" stroke-linejoin="miter"/><g stroke="none" fill="#fefefe"><use xlink:href="#B"/><path d="M401 64c4 3 5 8 2 12l-41 63c-2 4-7 5-11 3l-6-4c-4-2-5-8-3-11l41-64c1-2 3-3 5-4 3 0 5 0 7 1l6 4z"/><path d="M428 137c0 4-4 8-8 8l-71 1c-2 0-4-1-5-2-2-1-3-3-3-6v-8c0-4 3-8 8-8l70-1c5 0 8 3 9 8v8z"/></g><use xlink:href="#C" fill="#000" stroke-linejoin="miter"/><g stroke="none" fill="#fefefe"><path d="M178 325c7 0 12 5 12 12v106c0 7-5 12-12 12-2 0 2 0 0 0-7 0-12-5-12-12V337c0-3 1-6 3-9 3-2 6-3 9-3 2 0-2 0 0 0z"/><use xlink:href="#C"/><path d="M210 403c0 2-1 4-2 5-2 2-4 3-6 3l-71 1c-4 0-8-3-8-8v-8c0-4 3-8 8-8l70-1c3 0 5 1 6 2 2 2 3 4 3 6v8zM94 325c3 0 6 1 8 3 3 3 4 6 4 9v106c0 7-5 12-12 12-2 0 2 0 0 0-7 0-12-5-12-12V337c0-7 5-12 12-12 2 0-2 0 0 0z"/><use xlink:href="#A" x="-34" y="265"/><path d="M356 315c7 0 12 5 12 12v106c0 7-5 12-12 12-2 0 2 0 0 0-7 0-12-5-12-12V327c0-3 1-6 3-9 3-2 6-3 9-3 2 0-2 0 0 0z"/><use xlink:href="#A" x="228" y="256"/><path d="M427 315c3 0 6 1 8 3 3 3 4 6 4 9v106c0 7-5 12-12 12-2 0 2 0 0 0-7 0-12-5-12-12V327c0-3 1-6 3-9 3-2 6-3 9-3 2 0-2 0 0 0z"/><path d="M433 331c1 1 2 2 2 3s-1 3-2 3l-30 30c-2 1-5 1-7 0l-10-11c-1-2-1-5 0-7l31-29c1-1 4-1 6 0l10 11z"/></g></g><defs><path id="A" d="M134 75c2 2 2 5 0 6l-30 30c-2 1-5 1-7 0l-10-11c-1-2-1-5 0-7l31-29c1-1 4-1 6 0l10 11z"/><path id="B" d="M396 59c7 0 12 5 12 12v106c0 7-5 12-12 12-2 0 2 0 0 0-7 0-12-5-12-12V71c0-7 5-12 12-12 2 0-2 0 0 0z"/><path id="C" d="M184 330c4 3 5 8 2 12l-41 63c-1 2-3 4-5 4-2 1-4 0-6-1l-6-4c-2-1-3-3-4-5 0-2 0-5 1-6l41-64c3-4 8-5 12-3l6 4z"/></defs></svg>