<svg xmlns="http://www.w3.org/2000/svg" xmlns:xlink="http://www.w3.org/1999/xlink" width="42" height="42" stroke="#000" stroke-linecap="round" stroke-linejoin="round" fill="#fff" fill-rule="evenodd"><style><![CDATA[.B{stroke:none}.C{fill-opacity:0}.D{stroke-linejoin:miter}.E{fill:#000}.F{stroke-width:.078}.G{stroke-opacity:0}]]></style><g fill-rule="nonzero"><path d="M9 7l3-3 12-3 3 3-7 16L9 7z" fill="#29963c" opacity=".6" class="B"/><path d="M9 7l3-3 12-3 3 3-7 16L9 7z" opacity=".6" class="C D E F"/><path d="M3 25l4 7 6 6h3l4-17H4l-1 4z" fill="#924c4c" opacity=".53" class="B"/><path d="M3 25l4 7 6 6h3l4-17H4l-1 4z" opacity=".53" class="C D E F"/><path d="M9 7l-4 4-2 10h17L9 7z" fill="#ad4040" opacity=".74" class="B"/><path d="M9 7l-4 4-2 10h17L9 7z" opacity=".74" class="C D E F"/><use xlink:href="#B" class="B"/><use xlink:href="#B" class="C D E F G"/><path d="M20 6h2v3h-2V6z" class="B"/><path d="M20 6h2v3h-2V6z" class="C D E F G"/><path d="M29 11l2-2 2 2-2 2-2-2z" class="B"/><path d="M29 11l2-2 2 2-2 2-2-2z" class="C D E F G"/><path d="M33 20h3v2h-3v-2z" class="B"/><path d="M33 20h3v2h-3v-2z" class="C D E F G"/><path d="M29 31l2-2 2 2-2 2-2-2z" class="B"/><path d="M29 31l2-2 2 2-2 2-2-2z" class="C D E F G"/><path d="M20 33h2v3h-2v-3z" class="B"/><path d="M20 33h2v3h-2v-3z" class="C D E F G"/><path d="M9 31l2-2 2 2-2 2-2-2z" class="B"/><path d="M9 31l2-2 2 2-2 2-2-2z" class="C D E F G"/><path d="M6 20h3v2H6v-2z" class="B"/><path d="M6 20h3v2H6v-2z" class="C D E F G"/><path d="M9 11l2-2 2 2-2 2-2-2z" class="B"/><path d="M9 11l2-2 2 2-2 2-2-2z" class="C D E F G"/><path d="M29 22h-9v-9h2v7h7v2z" class="B"/><path d="M29 22h-9v-9h2v7h7v2z" class="C D E F G"/></g><defs ><path id="B" d="M7 35c-4-4-6-9-6-14S3 11 7 7s9-6 14-6 10 2 14 6 6 9 6 14-2 10-6 14-9 6-14 6-10-2-14-6zM9 9c-4 3-6 7-6 12s2 9 6 12c3 4 7 6 12 6s9-2 12-6c4-3 6-7 6-12s-2-9-6-12c-3-4-7-6-12-6S12 5 9 9z"/></defs></svg>