<svg xmlns="http://www.w3.org/2000/svg" viewBox="0 0 448.4 448.4" width="512" height="512"><path d="M442.6 148.2c-4.2-4.7-10-7.3-16.2-7.3H406l6.8-43.4c1-6.3-1-12.5-4.7-16.7-4.2-4.7-10-7.3-15.7-7.3H359l6.8-42.3c1-6.3-1-12.5-4.7-16.7-4.2-4.7-10-7.3-15.7-7.3h-244c-6.3 0-12 2.6-15.7 7.3a20 20 0 0 0-4.7 16.7L88 73H55.5c-6.3 0-12 2.6-15.7 7.3A20 20 0 0 0 35.1 97l6.8 42.8H21c-6.3 0-12 2.6-16.2 7.3-3.7 4.2-5.2 10-4.7 15.7l24 250.8a32 32 0 0 0 31.3 27.7H393a31 31 0 0 0 31.3-28.2l24-250.3c-.5-4.2-2-10-5.7-14.6zm-329-109.7H333l-5.2 35H119.2l-5.7-35zM67 104.8h313l-5.7 36H72.7l-5.7-36zm325 306.7h0H54.4l-.5-.5-23-238.8h383.5L392 411.5z" fill="#fff"/><path d="M289 271H157.4c-9 0-15.7-6.8-15.7-15.7s6.8-15.7 15.7-15.7H289c9 0 15.7 6.8 15.7 15.7S298 271 289 271z" fill="#e3e9ed"/></svg>