<svg xmlns="http://www.w3.org/2000/svg" viewBox="0 0 392.5 392.5"><path d="M359.82 370.72a10.9 10.9 0 0 0 10.93-10.92V136.76H21.8v222.9a10.9 10.9 0 0 0 10.92 10.93l327.1.13z" fill="#fff"/><path d="M119.92 64.23V32.68a10.93 10.93 0 1 0-21.85 0v31.6a10.9 10.9 0 1 0 21.84-.08zm174.48 0V32.68a10.9 10.9 0 0 0-10.92-10.92c-6.08 0-10.93 4.85-10.93 10.93v31.6a10.9 10.9 0 1 0 21.85-.08zM72.47 183.7h32.7v32.7h-32.7z" fill="#ffc10d"/><path d="M179.9 183.7h32.7v32.7h-32.7z" fill="#56ace0"/><path d="M287.35 183.7h32.7v32.7h-32.7z" fill="#ffc10d"/><path d="M72.47 289.26h32.7v32.7h-32.7z" fill="#56ace0"/><path d="M179.9 289.26h32.7v32.7h-32.7z" fill="#ffc10d"/><path d="M287.35 289.26h32.7v32.7h-32.7z" fill="#56ace0"/><path d="M359.82 37.6h-43.57v-4.85c0-18.04-14.68-32.7-32.7-32.7s-32.7 14.68-32.7 32.7v4.85H141.7v-4.85c0-18.04-14.68-32.7-32.7-32.7s-32.7 14.67-32.7 32.7v4.85H32.7C14.68 37.6 0 52.27 0 70.3v289.5c0 18.04 14.68 32.7 32.7 32.7h327.1c18.04 0 32.7-14.67 32.7-32.7V70.3c0-18.04-14.67-32.7-32.7-32.7zm-87.2-4.9a10.9 10.9 0 1 1 21.85 0v31.6a10.9 10.9 0 0 1-10.93 10.92c-6.08 0-10.93-4.85-10.93-10.92v-31.6zm-174.48 0a10.9 10.9 0 0 1 10.93-10.92c6.08 0 10.92 4.85 10.92 10.93v31.6a10.9 10.9 0 0 1-10.92 10.92c-6.08 0-10.93-4.85-10.93-10.92v-31.6zm272.6 327.1a10.9 10.9 0 0 1-10.93 10.92H32.7a10.9 10.9 0 0 1-10.92-10.92V136.76h348.96V359.8zm0-244.75H21.8V70.3a10.9 10.9 0 0 1 10.92-10.92h43.57v4.85c0 18.04 14.67 32.7 32.7 32.7s32.7-14.67 32.7-32.7v-4.85h109.06v4.85c0 18.04 14.68 32.7 32.7 32.7s32.7-14.67 32.7-32.7v-4.85h43.57a10.9 10.9 0 0 1 10.93 10.92l.06 44.74z" fill="#194f82"/><path d="M21.8 70.3v44.74h348.96V70.3a10.9 10.9 0 0 0-10.93-10.92h-43.57v4.85c0 18.04-14.68 32.7-32.7 32.7s-32.7-14.67-32.7-32.7v-4.85H141.7v4.85c0 18.04-14.68 32.7-32.7 32.7s-32.7-14.67-32.7-32.7v-4.85H32.7A10.9 10.9 0 0 0 21.79 70.3z" fill="#56ace0"/><path d="M61.6 238.2h54.5a10.9 10.9 0 0 0 10.92-10.93V172.7a10.9 10.9 0 0 0-10.92-10.93H61.6a10.9 10.9 0 0 0-10.92 10.93v54.56c0 6.08 4.85 10.93 10.92 10.93zm10.86-54.5h32.7v32.7h-32.7v-32.7zM169 238.2h54.56a10.9 10.9 0 0 0 10.93-10.93V172.7a10.9 10.9 0 0 0-10.93-10.93H169a10.9 10.9 0 0 0-10.92 10.93v54.56c.06 6.08 4.9 10.93 10.92 10.93zm10.93-54.5h32.7v32.7h-32.7v-32.7zm96.57 54.5h54.56a10.9 10.9 0 0 0 10.93-10.93V172.7a10.9 10.9 0 0 0-10.93-10.93H276.5a10.9 10.9 0 0 0-10.93 10.93v54.56a10.9 10.9 0 0 0 10.93 10.93zm10.86-54.5h32.7v32.7h-32.7v-32.7zM61.6 343.82h54.5a10.9 10.9 0 0 0 10.92-10.93v-54.56a10.9 10.9 0 0 0-10.92-10.92H61.6a10.9 10.9 0 0 0-10.92 10.92v54.56a10.9 10.9 0 0 0 10.92 10.93zm10.86-54.56h32.7v32.7h-32.7v-32.7zM169 343.82h54.56a10.9 10.9 0 0 0 10.93-10.93v-54.56a10.9 10.9 0 0 0-10.93-10.92H169a10.9 10.9 0 0 0-10.92 10.92v54.56A11 11 0 0 0 169 343.82zm10.93-54.56h32.7v32.7h-32.7v-32.7zm96.57 54.56h54.56a10.9 10.9 0 0 0 10.93-10.93v-54.56a10.9 10.9 0 0 0-10.93-10.92H276.5a10.9 10.9 0 0 0-10.93 10.92v54.56c0 6 4.9 10.93 10.93 10.93zm10.86-54.56h32.7v32.7h-32.7v-32.7z" fill="#194f82"/></svg>