<svg xmlns="http://www.w3.org/2000/svg" xmlns:xlink="http://www.w3.org/1999/xlink" preserveAspectRatio="xMidYMid meet" viewBox="0 0 640 640" width="20" height="20"><defs><path d="M584 182a19 19 0 0 0-27.7 0L320 418.2 83.6 182a19 19 0 0 0-13.8-6 19 19 0 0 0-13.8 6l-30 30a19 19 0 0 0-6 13.8 19 19 0 0 0 6 13.8L306.2 520a19 19 0 0 0 27.7 0L614 239.6a19 19 0 0 0 0-27.7l-30-30z" id="A"/></defs><use xlink:href="#A" fill="#fff"/><use xlink:href="#A" fill-opacity="0" stroke="#000" stroke-opacity="0"/></svg>