<svg xmlns="http://www.w3.org/2000/svg" viewBox="0 0 486 486" width="512" height="512"><path d="M420.7 85.4c-42-42-98-65.3-157.6-65.3a221 221 0 0 0-159.6 67.3c-4.6 4.7-4.5 12.3.2 17 4.7 4.6 12.3 4.5 17-.2 37.8-38.7 88.3-60 142.4-60A199 199 0 0 1 462 243a199 199 0 0 1-198.9 198.9A199 199 0 0 1 64.2 243v-2.5L84 260.3a12 12 0 0 0 8.5 3.5c3 0 6-1.2 8.5-3.5a12 12 0 0 0 0-17L60.8 203a12 12 0 0 0-17 0L3.5 243.3a12 12 0 0 0 8.5 20.5c3 0 6-1.2 8.5-3.5l19.8-19.8v2.5c0 59.5 23.2 115.5 65.3 157.6s98 65.3 157.6 65.3 115.5-23.2 157.6-65.3S486 302.5 486 243s-23.2-115.5-65.3-157.6z" fill="rgba(255, 255, 255, 0.7)"/><path d="M263 113.4a71 71 0 0 0-70.7 70.7v34h-22a12 12 0 0 0-12 12V350a12 12 0 0 0 12 12H356a12 12 0 0 0 12-12V230.3a12 12 0 0 0-12-12h-22v-34a71 71 0 0 0-70.8-70.8zm-46.7 70.8a47 47 0 0 1 46.7-46.7 47 47 0 0 1 46.7 46.7v34h-93.4v-34zM344 338H182.4v-95.7H344V338z" fill="#fafaff"/></svg>